<?xml version="1.0" standalone="no"?>
<!DOCTYPE svg PUBLIC "-//W3C//DTD SVG 20010904//EN"
 "http://www.w3.org/TR/2001/REC-SVG-20010904/DTD/svg10.dtd">
<svg version="1.0" xmlns="http://www.w3.org/2000/svg"
 width="512.000000pt" height="512.000000pt" viewBox="0 0 512.000000 512.000000"
 preserveAspectRatio="xMidYMid meet">
<metadata>
Created by potrace 1.11, written by Peter Selinger 2001-2013
</metadata>
<g transform="translate(0.000000,512.000000) scale(0.100000,-0.100000)"
fill="#000000" stroke="none">
<path d="M0 2560 l0 -2560 2560 0 2560 0 0 2560 0 2560 -2560 0 -2560 0 0
-2560z m2331 570 c187 -561 230 -683 239 -673 6 6 268 894 318 1076 4 16 35
17 468 17 l464 0 0 -1025 0 -1025 -336 0 -336 0 6 118 c12 240 18 1037 8 1027
-6 -5 -94 -265 -197 -578 l-186 -567 -246 2 -246 3 -185 570 c-101 314 -186
572 -188 574 -2 2 -6 2 -8 0 -2 -2 2 -209 10 -459 7 -250 13 -508 14 -572 l0
-118 -320 0 -320 0 0 1025 0 1025 452 -2 451 -3 138 -415z"/>
</g>
</svg>
